<?xml version="1.0" ?><svg id="Layer_1" style="enable-background:new 0 0 242.9 242.9;" version="1.1" viewBox="0 0 242.9 242.9" xml:space="preserve" xmlns="http://www.w3.org/2000/svg" xmlns:xlink="http://www.w3.org/1999/xlink"><style type="text/css">
	.st0{fill:#CBDBF1;}
</style><path class="st0" d="M242.9,0v120.6c-3.3-0.9-7.6-1.7-13.1-1.7c-8.2,0-15.7,2.7-20.9,8c-7,7.1-8.9,16.2-8.9,26.1v3.6h-11.8v16.6H200  v69.7h-17c0.8-0.3,1.6-0.6,2.2-0.9l-2.3-19.6c-2.9,0.9-7.3,1.8-11.2,1.8c-14.3,0-25.2-11.2-25.2-40c0-29.8,12-41.2,25.2-41.2  c5.2,0,8.2,1.1,10.9,2.3l3.9-19.6c-2.3-1.6-8-3.2-16.2-3.2c-23.4,0-48.5,17.7-48.5,63c0,28.5,10.2,50.8,31.5,57.4H0V0H242.9z   M234.1,138c-7.9,0-10.7,6.8-10.7,14.5v4.1h15.2v16.6h-15.2v69.7h19.5V127.7l-1.7,11.4C239.4,138.4,236.9,138,234.1,138z"/></svg>