<svg xmlns="http://www.w3.org/2000/svg" id="Layer_1" viewBox="0 0 64 64"><path fill="#2c4355" d="M22.493 36.5c-2.757 0-5 2.243-5 5s2.243 5 5 5 5-2.243 5-5-2.243-5-5-5zm0 9c-2.206 0-4-1.794-4-4s1.794-4 4-4 4 1.794 4 4-1.794 4-4 4z"/><path fill="#2c4355" d="M37.062 39.505l-3.862-.533a10.881 10.881 0 0 0-1.35-3.252l2.356-3.11a.499.499 0 0 0-.045-.655l-2.122-2.121a.5.5 0 0 0-.655-.045l-3.11 2.355a10.888 10.888 0 0 0-3.252-1.35l-.533-3.862a.5.5 0 0 0-.495-.432h-3a.5.5 0 0 0-.495.432l-.533 3.862c-1.15.27-2.242.723-3.253 1.35l-3.11-2.355a.5.5 0 0 0-.655.045l-2.121 2.121a.499.499 0 0 0-.045.655l2.355 3.11a10.892 10.892 0 0 0-1.35 3.252l-3.862.533a.5.5 0 0 0-.432.495v3a.5.5 0 0 0 .432.495l3.862.533a10.881 10.881 0 0 0 1.35 3.252l-2.355 3.11a.499.499 0 0 0 .045.655l2.121 2.121a.498.498 0 0 0 .655.045l3.11-2.355a10.893 10.893 0 0 0 3.253 1.35l.533 3.862a.5.5 0 0 0 .495.432h3a.5.5 0 0 0 .495-.432l.533-3.862c1.15-.27 2.242-.723 3.252-1.35l3.11 2.355a.498.498 0 0 0 .655-.045l2.122-2.121a.499.499 0 0 0 .045-.655l-2.356-3.11a10.888 10.888 0 0 0 1.35-3.252l3.862-.533a.5.5 0 0 0 .432-.495v-3a.5.5 0 0 0-.432-.495zm-.569 3.059l-3.776.521a.5.5 0 0 0-.422.396 9.88 9.88 0 0 1-1.472 3.545.5.5 0 0 0 .018.579l2.304 3.041-1.505 1.505-3.04-2.302a.499.499 0 0 0-.579-.018 9.873 9.873 0 0 1-3.546 1.471.498.498 0 0 0-.396.422l-.521 3.776H21.43l-.521-3.776a.5.5 0 0 0-.396-.422 9.905 9.905 0 0 1-3.546-1.471.499.499 0 0 0-.579.018l-3.041 2.303-1.505-1.505 2.303-3.041a.5.5 0 0 0 .018-.579 9.896 9.896 0 0 1-1.471-3.545.498.498 0 0 0-.422-.396l-3.776-.521v-2.129l3.776-.521a.5.5 0 0 0 .422-.396 9.889 9.889 0 0 1 1.471-3.545.5.5 0 0 0-.018-.579l-2.303-3.041 1.505-1.505 3.041 2.303a.502.502 0 0 0 .579.018 9.88 9.88 0 0 1 3.546-1.471.498.498 0 0 0 .396-.422l.521-3.776h2.128l.521 3.776a.5.5 0 0 0 .396.422c1.268.254 2.46.75 3.546 1.471.177.117.409.11.579-.018l3.041-2.303 1.505 1.505-2.304 3.041a.5.5 0 0 0-.018.579 9.881 9.881 0 0 1 1.471 3.545.498.498 0 0 0 .422.396l3.776.521v2.128zM36.493 16.5c-1.654 0-3 1.346-3 3s1.346 3 3 3 3-1.346 3-3-1.346-3-3-3zm0 5c-1.103 0-2-.897-2-2s.897-2 2-2 2 .897 2 2-.897 2-2 2z"/><path fill="#2c4355" d="M48.062 17.815l-2.993-.413a8.712 8.712 0 0 0-1.03-2.481l1.826-2.41a.499.499 0 0 0-.045-.655l-1.683-1.683a.5.5 0 0 0-.655-.045l-2.41 1.826a8.71 8.71 0 0 0-2.481-1.029l-.413-2.993a.498.498 0 0 0-.495-.432h-2.379a.5.5 0 0 0-.495.432l-.413 2.993a8.721 8.721 0 0 0-2.481 1.029l-2.41-1.826a.501.501 0 0 0-.655.045l-1.682 1.683a.499.499 0 0 0-.045.655l1.826 2.41a8.74 8.74 0 0 0-1.03 2.481l-2.993.413a.5.5 0 0 0-.432.495v2.379a.5.5 0 0 0 .432.495l2.993.413a8.736 8.736 0 0 0 1.03 2.481l-1.826 2.41a.499.499 0 0 0 .045.655l1.682 1.683a.498.498 0 0 0 .655.045l2.41-1.826a8.71 8.71 0 0 0 2.481 1.029l.413 2.993a.5.5 0 0 0 .495.432h2.379a.5.5 0 0 0 .495-.432l.413-2.993a8.721 8.721 0 0 0 2.481-1.029l2.41 1.826a.498.498 0 0 0 .655-.045l1.683-1.683a.499.499 0 0 0 .045-.655l-1.826-2.41a8.74 8.74 0 0 0 1.03-2.481l2.993-.413a.5.5 0 0 0 .432-.495V18.31a.502.502 0 0 0-.432-.495zm-.569 2.439l-2.905.401a.5.5 0 0 0-.422.396 7.737 7.737 0 0 1-1.152 2.775.5.5 0 0 0 .018.579l1.772 2.34-1.066 1.066-2.34-1.772a.499.499 0 0 0-.579-.018 7.75 7.75 0 0 1-2.775 1.151.498.498 0 0 0-.396.422l-.401 2.906h-1.508l-.401-2.906a.5.5 0 0 0-.396-.422 7.76 7.76 0 0 1-2.775-1.151.499.499 0 0 0-.579.018l-2.34 1.772-1.066-1.066 1.772-2.34a.5.5 0 0 0 .018-.579 7.748 7.748 0 0 1-1.152-2.775.498.498 0 0 0-.422-.396l-2.906-.401v-1.508l2.906-.401a.5.5 0 0 0 .422-.396 7.726 7.726 0 0 1 1.152-2.775.5.5 0 0 0-.018-.579l-1.772-2.34 1.066-1.066 2.34 1.772a.502.502 0 0 0 .579.018 7.75 7.75 0 0 1 2.775-1.151.498.498 0 0 0 .396-.422l.401-2.906h1.508l.401 2.906a.5.5 0 0 0 .396.422 7.742 7.742 0 0 1 2.775 1.151c.177.117.41.11.579-.018l2.34-1.772 1.066 1.066-1.772 2.34a.5.5 0 0 0-.018.579 7.77 7.77 0 0 1 1.152 2.775.498.498 0 0 0 .422.396l2.905.401v1.508z"/><path fill="#f15743" d="M47.525 34.991c-1.104-.003-2.013.866-2.032 1.968a2.003 2.003 0 0 0 1.968 2.032h.032a2.005 2.005 0 0 0 2-1.968 2.002 2.002 0 0 0-1.968-2.032zm-.047 3a1.001 1.001 0 0 1 .016-2h.016c.552.009.993.465.984 1.016-.01.551-.468.993-1.016.984z"/><path fill="#f15743" d="M56.083 35.754l-2.12-.327a6.574 6.574 0 0 0-.681-1.72l1.324-1.689a.5.5 0 0 0-.035-.656l-1.223-1.263a.498.498 0 0 0-.655-.056l-1.731 1.268a6.603 6.603 0 0 0-1.697-.736l-.258-2.129a.5.5 0 0 0-.488-.44l-1.759-.028c-.284-.009-.464.177-.502.424l-.327 2.12a6.574 6.574 0 0 0-1.72.681l-1.689-1.324a.496.496 0 0 0-.656.035l-1.263 1.223a.5.5 0 0 0-.056.655l1.268 1.731a6.603 6.603 0 0 0-.736 1.697l-2.129.258a.5.5 0 0 0-.44.488l-.028 1.759a.5.5 0 0 0 .424.502l2.12.327c.145.602.373 1.178.681 1.72l-1.324 1.689a.5.5 0 0 0 .035.656l1.223 1.263a.5.5 0 0 0 .655.056l1.731-1.268a6.574 6.574 0 0 0 1.697.736l.258 2.129a.5.5 0 0 0 .488.44l1.759.028h.008a.5.5 0 0 0 .494-.424l.327-2.12a6.602 6.602 0 0 0 1.72-.681l1.689 1.324c.197.154.477.14.656-.035l1.263-1.223a.5.5 0 0 0 .056-.655l-1.268-1.731a6.608 6.608 0 0 0 .736-1.697l2.129-.258a.5.5 0 0 0 .44-.488l.028-1.759a.5.5 0 0 0-.424-.502zm-.597 1.809l-2.04.248a.502.502 0 0 0-.429.39 5.59 5.59 0 0 1-.864 1.992.5.5 0 0 0 .009.579l1.215 1.658-.637.617-1.618-1.268a.5.5 0 0 0-.579-.027c-.621.398-1.3.667-2.019.8a.5.5 0 0 0-.403.416l-.313 2.03-.887-.014-.248-2.04a.502.502 0 0 0-.39-.429 5.597 5.597 0 0 1-1.992-.864.5.5 0 0 0-.579.009l-1.658 1.215-.617-.637 1.268-1.618a.5.5 0 0 0 .027-.579 5.619 5.619 0 0 1-.8-2.019.5.5 0 0 0-.416-.403l-2.03-.313.014-.887 2.04-.248a.503.503 0 0 0 .429-.391 5.582 5.582 0 0 1 .864-1.991.5.5 0 0 0-.009-.579l-1.215-1.658.637-.617 1.618 1.268a.502.502 0 0 0 .579.027 5.604 5.604 0 0 1 2.019-.8.5.5 0 0 0 .403-.416l.313-2.03.887.014.248 2.04a.503.503 0 0 0 .391.429 5.582 5.582 0 0 1 1.991.864.497.497 0 0 0 .579-.009l1.658-1.215.617.637-1.268 1.618a.5.5 0 0 0-.027.579c.398.62.667 1.299.8 2.019a.5.5 0 0 0 .416.403l2.03.313-.014.887z"/></svg>